<svg width="123" height="25" viewBox="0 0 123 25" fill="none" xmlns="http://www.w3.org/2000/svg">
<path d="M2.384 24.256C1.78667 24.256 1.328 24.0853 1.008 23.744C0.688 23.4027 0.528 22.9333 0.528 22.336V3.104C0.528 2.48533 0.698667 2.016 1.04 1.696C1.38133 1.35467 1.85067 1.184 2.448 1.184C2.98133 1.184 3.39733 1.29067 3.696 1.504C4.016 1.696 4.304 2.03733 4.56 2.528L12.464 17.152H11.44L19.344 2.528C19.6 2.03733 19.8773 1.696 20.176 1.504C20.4747 1.29067 20.8907 1.184 21.424 1.184C22.0213 1.184 22.48 1.35467 22.8 1.696C23.12 2.016 23.28 2.48533 23.28 3.104V22.336C23.28 22.9333 23.12 23.4027 22.8 23.744C22.5013 24.0853 22.0427 24.256 21.424 24.256C20.8267 24.256 20.368 24.0853 20.048 23.744C19.728 23.4027 19.568 22.9333 19.568 22.336V7.52H20.272L13.552 19.776C13.3387 20.1387 13.1147 20.4053 12.88 20.576C12.6453 20.7467 12.3253 20.832 11.92 20.832C11.5147 20.832 11.184 20.7467 10.928 20.576C10.672 20.384 10.448 20.1173 10.256 19.776L3.472 7.488H4.24V22.336C4.24 22.9333 4.08 23.4027 3.76 23.744C3.46133 24.0853 3.00267 24.256 2.384 24.256ZM29.8453 24.224C29.2053 24.224 28.7146 24.032 28.3733 23.648C28.0319 23.264 27.8613 22.7307 27.8613 22.048V10.304C27.8613 9.6 28.0319 9.06667 28.3733 8.704C28.7146 8.32 29.2053 8.128 29.8453 8.128C30.4853 8.128 30.9759 8.32 31.3173 8.704C31.6799 9.06667 31.8613 9.6 31.8613 10.304V22.048C31.8613 22.7307 31.6906 23.264 31.3493 23.648C31.0079 24.032 30.5066 24.224 29.8453 24.224ZM29.8453 5.152C29.0986 5.152 28.5119 4.97067 28.0853 4.608C27.6799 4.224 27.4773 3.70133 27.4773 3.04C27.4773 2.35733 27.6799 1.83467 28.0853 1.472C28.5119 1.10933 29.0986 0.927999 29.8453 0.927999C30.6133 0.927999 31.1999 1.10933 31.6053 1.472C32.0106 1.83467 32.2133 2.35733 32.2133 3.04C32.2133 3.70133 32.0106 4.224 31.6053 4.608C31.1999 4.97067 30.6133 5.152 29.8453 5.152ZM43.2495 24.32C41.6068 24.32 40.1775 23.9893 38.9615 23.328C37.7455 22.6453 36.8068 21.6853 36.1455 20.448C35.4842 19.2107 35.1535 17.76 35.1535 16.096C35.1535 14.8373 35.3348 13.7173 35.6975 12.736C36.0815 11.7333 36.6255 10.8907 37.3295 10.208C38.0335 9.504 38.8868 8.97067 39.8895 8.608C40.8922 8.224 42.0122 8.032 43.2495 8.032C43.9535 8.032 44.7108 8.128 45.5215 8.32C46.3535 8.512 47.1322 8.832 47.8575 9.28C48.1988 9.49333 48.4228 9.74933 48.5295 10.048C48.6362 10.3467 48.6575 10.656 48.5935 10.976C48.5295 11.2747 48.3908 11.5413 48.1775 11.776C47.9855 11.9893 47.7402 12.128 47.4415 12.192C47.1428 12.2347 46.8122 12.16 46.4495 11.968C45.9802 11.6907 45.5002 11.488 45.0095 11.36C44.5188 11.2107 44.0495 11.136 43.6015 11.136C42.8975 11.136 42.2788 11.2533 41.7455 11.488C41.2122 11.7013 40.7535 12.0213 40.3695 12.448C40.0068 12.8533 39.7295 13.3653 39.5375 13.984C39.3455 14.6027 39.2495 15.3173 39.2495 16.128C39.2495 17.7067 39.6228 18.9547 40.3695 19.872C41.1375 20.768 42.2148 21.216 43.6015 21.216C44.0495 21.216 44.5082 21.152 44.9775 21.024C45.4682 20.896 45.9588 20.6933 46.4495 20.416C46.8122 20.224 47.1322 20.16 47.4095 20.224C47.7082 20.288 47.9535 20.4373 48.1455 20.672C48.3375 20.8853 48.4548 21.152 48.4975 21.472C48.5402 21.7707 48.4975 22.0693 48.3695 22.368C48.2628 22.6667 48.0495 22.912 47.7295 23.104C47.0255 23.5307 46.2788 23.84 45.4895 24.032C44.7002 24.224 43.9535 24.32 43.2495 24.32ZM53.1593 24.256C52.4979 24.256 51.9859 24.0853 51.6233 23.744C51.2819 23.3813 51.1113 22.8693 51.1113 22.208V10.112C51.1113 9.45067 51.2819 8.94933 51.6233 8.608C51.9646 8.26667 52.4446 8.096 53.0633 8.096C53.6819 8.096 54.1619 8.26667 54.5033 8.608C54.8446 8.94933 55.0153 9.45067 55.0153 10.112V12.128H54.6953C54.9939 10.848 55.5806 9.87733 56.4553 9.216C57.3299 8.55467 58.4926 8.16 59.9433 8.032C60.3913 7.98933 60.7433 8.10667 60.9993 8.384C61.2766 8.64 61.4366 9.04533 61.4793 9.6C61.5219 10.1333 61.3939 10.5707 61.0953 10.912C60.8179 11.232 60.3913 11.424 59.8153 11.488L59.1113 11.552C57.8099 11.68 56.8286 12.0853 56.1673 12.768C55.5059 13.4293 55.1753 14.368 55.1753 15.584V22.208C55.1753 22.8693 55.0046 23.3813 54.6633 23.744C54.3219 24.0853 53.8206 24.256 53.1593 24.256ZM70.5285 24.32C68.9072 24.32 67.4992 23.9893 66.3045 23.328C65.1098 22.6667 64.1818 21.728 63.5205 20.512C62.8592 19.2747 62.5285 17.824 62.5285 16.16C62.5285 14.9013 62.7098 13.7813 63.0725 12.8C63.4565 11.7973 64.0005 10.944 64.7045 10.24C65.4085 9.51467 66.2512 8.97067 67.2325 8.608C68.2138 8.224 69.3125 8.032 70.5285 8.032C72.1498 8.032 73.5578 8.36267 74.7525 9.024C75.9472 9.68533 76.8752 10.624 77.5365 11.84C78.1978 13.056 78.5285 14.496 78.5285 16.16C78.5285 17.4187 78.3365 18.5493 77.9525 19.552C77.5898 20.5547 77.0565 21.4187 76.3525 22.144C75.6485 22.848 74.8058 23.392 73.8245 23.776C72.8432 24.1387 71.7445 24.32 70.5285 24.32ZM70.5285 21.28C71.3178 21.28 72.0112 21.088 72.6085 20.704C73.2058 20.32 73.6645 19.7547 73.9845 19.008C74.3258 18.24 74.4965 17.2907 74.4965 16.16C74.4965 14.4533 74.1338 13.184 73.4085 12.352C72.6832 11.4987 71.7232 11.072 70.5285 11.072C69.7392 11.072 69.0458 11.264 68.4485 11.648C67.8512 12.0107 67.3818 12.576 67.0405 13.344C66.7205 14.0907 66.5605 15.0293 66.5605 16.16C66.5605 17.8453 66.9232 19.1253 67.6485 20C68.3738 20.8533 69.3338 21.28 70.5285 21.28ZM84.262 24.256C83.6007 24.256 83.0887 24.0747 82.726 23.712C82.3847 23.328 82.214 22.8053 82.214 22.144V3.264C82.214 2.58133 82.3847 2.06933 82.726 1.728C83.0887 1.36533 83.6007 1.184 84.262 1.184C84.9233 1.184 85.4247 1.36533 85.766 1.728C86.1287 2.06933 86.31 2.58133 86.31 3.264V11.424H86.374L95.558 2.208C95.8993 1.86667 96.2407 1.61067 96.582 1.44C96.9233 1.26933 97.3073 1.184 97.734 1.184C98.3527 1.184 98.79 1.344 99.046 1.664C99.3233 1.984 99.43 2.35733 99.366 2.784C99.3233 3.21067 99.1207 3.60533 98.758 3.968L89.414 13.216L89.446 11.36L99.206 21.28C99.654 21.7067 99.8887 22.1547 99.91 22.624C99.9313 23.0933 99.782 23.488 99.462 23.808C99.1633 24.1067 98.7153 24.256 98.118 24.256C97.606 24.256 97.19 24.1493 96.87 23.936C96.5713 23.7227 96.2193 23.4133 95.814 23.008L86.374 13.568H86.31V22.144C86.31 22.8053 86.1393 23.328 85.798 23.712C85.4567 24.0747 84.9447 24.256 84.262 24.256ZM105.908 24.224C105.268 24.224 104.777 24.032 104.436 23.648C104.094 23.264 103.924 22.7307 103.924 22.048V10.304C103.924 9.6 104.094 9.06667 104.436 8.704C104.777 8.32 105.268 8.128 105.908 8.128C106.548 8.128 107.038 8.32 107.38 8.704C107.742 9.06667 107.924 9.6 107.924 10.304V22.048C107.924 22.7307 107.753 23.264 107.412 23.648C107.07 24.032 106.569 24.224 105.908 24.224ZM105.908 5.152C105.161 5.152 104.574 4.97067 104.148 4.608C103.742 4.224 103.54 3.70133 103.54 3.04C103.54 2.35733 103.742 1.83467 104.148 1.472C104.574 1.10933 105.161 0.927999 105.908 0.927999C106.676 0.927999 107.262 1.10933 107.668 1.472C108.073 1.83467 108.276 2.35733 108.276 3.04C108.276 3.70133 108.073 4.224 107.668 4.608C107.262 4.97067 106.676 5.152 105.908 5.152ZM119.248 24.32C117.861 24.32 116.699 24.0853 115.76 23.616C114.843 23.1467 114.16 22.464 113.712 21.568C113.264 20.6507 113.04 19.52 113.04 18.176V11.36H111.376C110.864 11.36 110.469 11.232 110.192 10.976C109.915 10.6987 109.776 10.3253 109.776 9.856C109.776 9.36533 109.915 8.992 110.192 8.736C110.469 8.48 110.864 8.352 111.376 8.352H113.04V5.44C113.04 4.77867 113.211 4.27733 113.552 3.936C113.915 3.59467 114.416 3.424 115.056 3.424C115.696 3.424 116.187 3.59467 116.528 3.936C116.869 4.27733 117.04 4.77867 117.04 5.44V8.352H120.432C120.944 8.352 121.339 8.48 121.616 8.736C121.893 8.992 122.032 9.36533 122.032 9.856C122.032 10.3253 121.893 10.6987 121.616 10.976C121.339 11.232 120.944 11.36 120.432 11.36H117.04V17.952C117.04 18.976 117.264 19.744 117.712 20.256C118.16 20.768 118.885 21.024 119.888 21.024C120.251 21.024 120.571 20.992 120.848 20.928C121.125 20.864 121.371 20.8213 121.584 20.8C121.84 20.7787 122.053 20.864 122.224 21.056C122.395 21.2267 122.48 21.5893 122.48 22.144C122.48 22.5707 122.405 22.9547 122.256 23.296C122.128 23.616 121.883 23.84 121.52 23.968C121.243 24.0533 120.88 24.128 120.432 24.192C119.984 24.2773 119.589 24.32 119.248 24.32Z" fill="url(#paint0_linear_93_2862)"/>
<defs>
<linearGradient id="paint0_linear_93_2862" x1="-2" y1="-9" x2="96.1536" y2="75.525" gradientUnits="userSpaceOnUse">
<stop stop-color="#0C97FA"/>
<stop offset="1" stop-color="#16E1F5"/>
</linearGradient>
</defs>
</svg>
