<svg width="16" height="16" viewBox="0 0 16 16" fill="none" xmlns="http://www.w3.org/2000/svg">
<path d="M8.00002 4.79961C7.11637 4.79961 6.40002 4.08326 6.40002 3.19961C6.40002 2.31595 7.11637 1.59961 8.00002 1.59961C8.88368 1.59961 9.60002 2.31595 9.60002 3.19961C9.60002 4.08326 8.88368 4.79961 8.00002 4.79961Z" fill="#0C97FA"/>
<path d="M8.00002 9.59961C7.11637 9.59961 6.40002 8.88326 6.40002 7.99961C6.40002 7.11595 7.11637 6.39961 8.00002 6.39961C8.88368 6.39961 9.60002 7.11595 9.60002 7.99961C9.60002 8.88326 8.88368 9.59961 8.00002 9.59961Z" fill="#0C97FA"/>
<path d="M8.00002 14.3996C7.11637 14.3996 6.40002 13.6833 6.40002 12.7996C6.40002 11.916 7.11637 11.1996 8.00002 11.1996C8.88368 11.1996 9.60002 11.916 9.60002 12.7996C9.60002 13.6833 8.88368 14.3996 8.00002 14.3996Z" fill="#0C97FA"/>
</svg>
