<svg width="121" height="25" viewBox="0 0 121 25" fill="none" xmlns="http://www.w3.org/2000/svg">
<path d="M20.464 1.28C21.0613 1.28 21.5413 1.472 21.904 1.856C22.2667 2.21867 22.448 2.70933 22.448 3.328V22.272C22.448 22.8693 22.2773 23.3387 21.936 23.68C21.5947 24.0213 21.1467 24.192 20.592 24.192C20.0373 24.192 19.6 24.0213 19.28 23.68C18.96 23.3387 18.8 22.8693 18.8 22.272V9.088L13.36 19.392C13.104 19.8613 12.8267 20.2133 12.528 20.448C12.2293 20.6613 11.8773 20.768 11.472 20.768C11.0667 20.768 10.7147 20.6613 10.416 20.448C10.1173 20.2347 9.84 19.8827 9.584 19.392L4.112 9.248V22.272C4.112 22.848 3.94133 23.3173 3.6 23.68C3.28 24.0213 2.84267 24.192 2.288 24.192C1.73333 24.192 1.296 24.0213 0.976 23.68C0.656 23.3387 0.496 22.8693 0.496 22.272V3.328C0.496 2.70933 0.666667 2.21867 1.008 1.856C1.37067 1.472 1.85067 1.28 2.448 1.28C3.28 1.28 3.93067 1.73867 4.4 2.656L11.504 16.192L18.576 2.656C19.0453 1.73867 19.6747 1.28 20.464 1.28ZM28.9703 24.192C28.3943 24.192 27.9143 24.032 27.5303 23.712C27.1676 23.3707 26.9863 22.8907 26.9863 22.272V9.92C26.9863 9.30133 27.1676 8.832 27.5303 8.512C27.9143 8.192 28.3943 8.032 28.9703 8.032C29.5463 8.032 30.0263 8.192 30.4103 8.512C30.7943 8.832 30.9863 9.30133 30.9863 9.92V22.272C30.9863 22.8907 30.7943 23.3707 30.4103 23.712C30.0263 24.032 29.5463 24.192 28.9703 24.192ZM28.9703 5.184C28.2449 5.184 27.6689 4.992 27.2423 4.608C26.8156 4.20267 26.6023 3.68 26.6023 3.04C26.6023 2.4 26.8156 1.888 27.2423 1.504C27.6689 1.12 28.2449 0.927999 28.9703 0.927999C29.6743 0.927999 30.2396 1.12 30.6663 1.504C31.1143 1.888 31.3383 2.4 31.3383 3.04C31.3383 3.68 31.1249 4.20267 30.6983 4.608C30.2716 4.992 29.6956 5.184 28.9703 5.184ZM42.0553 24.256C40.4979 24.256 39.1219 23.9253 37.9273 23.264C36.7539 22.6027 35.8473 21.664 35.2073 20.448C34.5673 19.232 34.2473 17.8133 34.2473 16.192C34.2473 14.5707 34.5779 13.1413 35.2393 11.904C35.9219 10.6453 36.8713 9.67467 38.0873 8.992C39.3033 8.30933 40.7006 7.968 42.2793 7.968C43.1113 7.968 43.9433 8.08533 44.7753 8.32C45.6286 8.55467 46.3753 8.87467 47.0153 9.28C47.6979 9.728 48.0393 10.2933 48.0393 10.976C48.0393 11.4453 47.9219 11.8293 47.6873 12.128C47.4739 12.4053 47.1859 12.544 46.8233 12.544C46.5886 12.544 46.3433 12.4907 46.0873 12.384C45.8313 12.2773 45.5753 12.1493 45.3193 12C44.8499 11.7227 44.4019 11.5093 43.9753 11.36C43.5486 11.1893 43.0579 11.104 42.5033 11.104C41.1806 11.104 40.1566 11.5413 39.4313 12.416C38.7273 13.2693 38.3753 14.5067 38.3753 16.128C38.3753 17.728 38.7273 18.9653 39.4313 19.84C40.1566 20.6933 41.1806 21.12 42.5033 21.12C43.0366 21.12 43.5059 21.0453 43.9113 20.896C44.3379 20.7253 44.8073 20.5013 45.3193 20.224C45.6393 20.032 45.9166 19.8933 46.1513 19.808C46.3859 19.7013 46.6206 19.648 46.8553 19.648C47.1966 19.648 47.4846 19.7973 47.7193 20.096C47.9539 20.3947 48.0713 20.768 48.0713 21.216C48.0713 21.5787 47.9859 21.8987 47.8153 22.176C47.6659 22.432 47.4099 22.6667 47.0473 22.88C46.3859 23.3067 45.6179 23.648 44.7433 23.904C43.8686 24.1387 42.9726 24.256 42.0553 24.256ZM59.4723 8.032C60.0269 7.98933 60.4643 8.10667 60.7843 8.384C61.1043 8.66133 61.2643 9.07733 61.2643 9.632C61.2643 10.208 61.1256 10.6347 60.8483 10.912C60.5709 11.1893 60.0696 11.3707 59.3443 11.456L58.3843 11.552C57.1256 11.68 56.1976 12.1067 55.6003 12.832C55.0243 13.5573 54.7363 14.464 54.7363 15.552V22.272C54.7363 22.8907 54.5443 23.3707 54.1603 23.712C53.7763 24.032 53.2963 24.192 52.7203 24.192C52.1443 24.192 51.6643 24.032 51.2803 23.712C50.9176 23.3707 50.7363 22.8907 50.7363 22.272V9.888C50.7363 9.29067 50.9176 8.832 51.2803 8.512C51.6643 8.192 52.1336 8.032 52.6883 8.032C53.2429 8.032 53.6909 8.192 54.0323 8.512C54.3736 8.81067 54.5443 9.248 54.5443 9.824V11.104C54.9496 10.1653 55.5469 9.44 56.3363 8.928C57.1469 8.416 58.0429 8.128 59.0243 8.064L59.4723 8.032ZM69.8098 24.256C68.2098 24.256 66.8018 23.9253 65.5858 23.264C64.3911 22.6027 63.4631 21.6533 62.8018 20.416C62.1404 19.1787 61.8098 17.7387 61.8098 16.096C61.8098 14.4533 62.1404 13.024 62.8018 11.808C63.4631 10.5707 64.3911 9.62133 65.5858 8.96C66.8018 8.29867 68.2098 7.968 69.8098 7.968C71.4098 7.968 72.8071 8.29867 74.0018 8.96C75.2178 9.62133 76.1458 10.5707 76.7858 11.808C77.4471 13.024 77.7778 14.4533 77.7778 16.096C77.7778 17.7387 77.4471 19.1787 76.7858 20.416C76.1458 21.6533 75.2178 22.6027 74.0018 23.264C72.8071 23.9253 71.4098 24.256 69.8098 24.256ZM69.7778 21.152C71.0791 21.152 72.0711 20.7253 72.7538 19.872C73.4364 19.0187 73.7778 17.76 73.7778 16.096C73.7778 14.4533 73.4364 13.2053 72.7538 12.352C72.0711 11.4773 71.0898 11.04 69.8098 11.04C68.5298 11.04 67.5378 11.4773 66.8338 12.352C66.1511 13.2053 65.8098 14.4533 65.8098 16.096C65.8098 17.76 66.1511 19.0187 66.8338 19.872C67.5164 20.7253 68.4978 21.152 69.7778 21.152ZM98.936 20.896C99.3627 21.3013 99.576 21.76 99.576 22.272C99.576 22.7627 99.384 23.2 99 23.584C98.6373 23.9467 98.2 24.128 97.688 24.128C97.1547 24.128 96.664 23.904 96.216 23.456L85.56 13.472V22.112C85.56 22.7307 85.368 23.232 84.984 23.616C84.6213 24 84.12 24.192 83.48 24.192C82.8613 24.192 82.36 24 81.976 23.616C81.6133 23.232 81.432 22.7307 81.432 22.112V3.328C81.432 2.70933 81.6133 2.21867 81.976 1.856C82.36 1.472 82.8613 1.28 83.48 1.28C84.12 1.28 84.6213 1.472 84.984 1.856C85.368 2.21867 85.56 2.70933 85.56 3.328V11.552L95.864 1.888C96.248 1.504 96.6853 1.312 97.176 1.312C97.6667 1.312 98.0933 1.504 98.456 1.888C98.84 2.25067 99.032 2.67733 99.032 3.168C99.032 3.65867 98.8187 4.10667 98.392 4.512L89.784 12.384L98.936 20.896ZM104.189 24.192C103.613 24.192 103.133 24.032 102.749 23.712C102.386 23.3707 102.205 22.8907 102.205 22.272V9.92C102.205 9.30133 102.386 8.832 102.749 8.512C103.133 8.192 103.613 8.032 104.189 8.032C104.765 8.032 105.245 8.192 105.629 8.512C106.013 8.832 106.205 9.30133 106.205 9.92V22.272C106.205 22.8907 106.013 23.3707 105.629 23.712C105.245 24.032 104.765 24.192 104.189 24.192ZM104.189 5.184C103.464 5.184 102.888 4.992 102.461 4.608C102.034 4.20267 101.821 3.68 101.821 3.04C101.821 2.4 102.034 1.888 102.461 1.504C102.888 1.12 103.464 0.927999 104.189 0.927999C104.893 0.927999 105.458 1.12 105.885 1.504C106.333 1.888 106.557 2.4 106.557 3.04C106.557 3.68 106.344 4.20267 105.917 4.608C105.49 4.992 104.914 5.184 104.189 5.184ZM119.146 21.216C120.212 21.28 120.746 21.76 120.746 22.656C120.746 23.168 120.532 23.5627 120.106 23.84C119.7 24.096 119.114 24.2027 118.345 24.16L117.482 24.096C113.898 23.84 112.106 21.92 112.106 18.336V11.36H110.506C109.93 11.36 109.482 11.232 109.162 10.976C108.863 10.72 108.713 10.3467 108.713 9.856C108.713 9.36533 108.863 8.992 109.162 8.736C109.482 8.48 109.93 8.352 110.506 8.352H112.106V5.408C112.106 4.832 112.287 4.37333 112.65 4.032C113.012 3.69067 113.503 3.52 114.122 3.52C114.719 3.52 115.199 3.69067 115.562 4.032C115.924 4.37333 116.106 4.832 116.106 5.408V8.352H118.826C119.402 8.352 119.839 8.48 120.138 8.736C120.458 8.992 120.618 9.36533 120.618 9.856C120.618 10.3467 120.458 10.72 120.138 10.976C119.839 11.232 119.402 11.36 118.826 11.36H116.106V18.624C116.106 20.2027 116.831 21.0453 118.282 21.152L119.146 21.216Z" fill="url(#paint0_linear_633_3129)"/>
<defs>
<linearGradient id="paint0_linear_633_3129" x1="-2" y1="-9" x2="95.9065" y2="73.9633" gradientUnits="userSpaceOnUse">
<stop stop-color="#0C97FA"/>
<stop offset="1" stop-color="#16E1F5"/>
</linearGradient>
</defs>
</svg>
